<?xml version="1.0" encoding="UTF-8"?>
<svg id="Capa_2" data-name="Capa 2" xmlns="http://www.w3.org/2000/svg" viewBox="0 0 148.47 148.47">
  <defs>
    <style>
      .cls-1 {
        fill: #4bae4f;
      }

      .cls-2 {
        fill: #fff;
      }
    </style>
  </defs>
  <g id="Capa_1-2" data-name="Capa 1">
    <g>
      <circle class="cls-1" cx="74.23" cy="74.23" r="74.23"/>
      <g>
        <path class="cls-2" d="M37.3,114.65c-.87,0-1.72-.34-2.35-.98-.83-.84-1.15-2.05-.84-3.19l4.86-17.77c-3.06-5.77-4.68-12.25-4.67-18.82,0-22.1,17.99-40.08,40.08-40.08,10.72,0,20.79,4.18,28.36,11.76,7.57,7.58,11.73,17.65,11.73,28.36,0,22.1-17.99,40.08-40.08,40.08-6.25,0-12.44-1.47-17.99-4.26l-18.26,4.79c-.28.07-.56.11-.84.11h0ZM56.8,102.94c.55,0,1.09.14,1.58.4,4.88,2.66,10.42,4.07,16,4.07,18.47,0,33.49-15.02,33.5-33.49,0-8.95-3.48-17.36-9.8-23.69-6.32-6.33-14.73-9.82-23.69-9.82-18.46,0-33.48,15.02-33.48,33.48,0,5.88,1.54,11.67,4.47,16.74.44.76.56,1.67.32,2.52l-3.71,13.55,13.97-3.67c.27-.07.55-.11.83-.11h0Z"/>
        <path class="cls-2" d="M60.01,74.64c-.47-.63-3.84-5.09-3.84-9.72s2.43-6.9,3.29-7.84,1.88-1.17,2.51-1.17,1.25,0,1.8.03c.58.03,1.35-.22,2.11,1.61.78,1.88,2.66,6.51,2.9,6.98s.39,1.02.08,1.65c-.31.63-.47,1.02-.94,1.57-.47.55-.99,1.23-1.41,1.65-.47.47-.96.98-.41,1.92s2.43,4.02,5.23,6.51c3.59,3.2,6.62,4.19,7.56,4.66.94.47,1.49.39,2.04-.24.55-.63,2.35-2.74,2.98-3.68s1.25-.78,2.11-.47,5.48,2.59,6.42,3.06,1.57.71,1.8,1.1c.24.39.24,2.27-.55,4.47s-4.54,4.2-6.34,4.47c-1.62.24-3.67.34-5.92-.37-1.36-.43-3.11-1.01-5.36-1.98-9.43-4.07-15.58-13.56-16.05-14.19h0Z"/>
      </g>
    </g>
  </g>
</svg>