<svg width="200" height="200" viewBox="0 0 200 200" xmlns="http://www.w3.org/2000/svg">
  <mask id="mask">
    <!-- Cuadrado sólido -->
    <rect x="0" y="0" width="200" height="200" rx="30" fill="white"/>
    <!-- Logo de LinkedIn en SVG con línea de la 'n' más ancha -->
    <path d="M60 70h20v60H60zM70 65a10 10 0 1 1 0-20 10 10 0 0 1 0 20zM90 70h16v12c3-5 10-12 20-12 15 0 25 10 25 30v30h-20v-30c0-7-3-10-8-10s-8 3-8 10v30h-25V70z" fill="black"/>
  </mask>
  <rect x="0" y="0" width="200" height="200" rx="30" fill="white" mask="url(#mask)"/>
</svg>
